<svg width="48" height="48" viewBox="0 0 46 46" fill="none" xmlns="http://www.w3.org/2000/svg">
<path d="M18.984 7.26746C11.0059 7.29352 5.05012 9.85586 1.69715 13.0273L2.80762 14.1953C8.3941 8.92688 23.2156 4.8875 43.6281 15.8844L44.4008 14.4648C34.6258 9.2 26.0188 7.2441 18.984 7.26746ZM10.2781 14.8871C5.24867 16.8547 2.98641 20.7809 1.59563 23.3684L3.02055 24.141C4.38977 21.5805 6.35645 18.1574 10.8711 16.3965C15.3813 14.6355 22.5957 14.5188 34.509 19.1547L35.102 17.6453C26.8633 14.7164 18.3012 11.8234 10.2781 14.8871ZM33.6734 21.7152C17.7262 29.9359 10.3141 27.5731 2.00711 25.4348L1.60461 27.007C3.03852 27.3754 4.47422 27.7527 5.95215 28.0762C4.21278 29.2981 3.36285 29.6215 2.34133 30.2863C4.64582 30.1875 6.13094 29.4598 7.7059 28.7949C6.57567 30.1875 5.59008 31.5801 3.57309 33.0535C6.00067 32.4066 8.3384 31.6879 10.0984 30.466C8.97809 32.2629 7.60797 34.0148 6.06535 35.7309C8.70945 34.9043 10.7094 32.9098 12.7848 30.9332C12.7578 32.6492 11.9582 34.3652 11.3922 36.0813C13.2789 34.3473 14.0875 33.0984 15.2285 31.3645C15.1207 33.9879 15.8574 36.1082 16.5043 38.7316C16.9086 36.225 17.3578 33.7094 17.3578 31.2836C18.7055 33.5297 20.5113 35.5781 22.7844 37.402C21.5715 35.2906 20.3586 33.1883 19.7207 30.9961C22.0387 33.1973 24.4555 35.3356 27.3574 37.1234C25.4258 35.0121 23.593 32.8738 22.407 30.5918C24.4914 32.5504 26.5848 34.509 30.0707 35.641C27.5461 33.907 25.9289 31.9395 24.743 29.8641C27.1418 31.8766 29.8281 33.6645 33.0715 35.0031C30.2055 33.0266 28.5883 31.05 27.4832 29.0734C29.8551 31.032 32.5684 32.3258 34.9312 33.6195C33.0625 31.8945 31.023 30.2414 30.0438 28.193C31.9754 29.873 34.2574 30.6008 36.5125 31.3824C34.4191 29.9898 33.2152 29.0465 31.9664 27.4023C33.9609 28.4086 35.623 28.8039 38.0219 29.3969C36.4586 28.5254 34.7965 27.3305 33.7273 26.2973C36.1262 26.8992 38.7586 26.9981 41.2383 26.9621C38.9652 26.3691 36.4945 25.8481 35.1828 24.9406C40.4297 24.9856 40.7531 24.5273 42.9543 23.4313C38.3004 23.7727 35.3445 23.6918 33.6734 21.7152Z" fill="black"/>
</svg>
