<svg width="48" height="48" viewBox="0 0 48 48" fill="none" xmlns="http://www.w3.org/2000/svg">
<path d="M6 10V35.75C6 37.4076 6.65848 38.9973 7.83058 40.1694C9.00268 41.3415 10.5924 42 12.25 42H36.75C38.4076 42 39.9973 41.3415 41.1694 40.1694C42.3415 38.9973 43 37.4076 43 35.75V18.25C42.9999 16.8093 42.5023 15.4128 41.5912 14.2967C40.6801 13.1807 39.4115 12.4135 38 12.125V10.25C38 9.12283 37.5522 8.04183 36.7552 7.2448C35.9582 6.44777 34.8772 6 33.75 6H10.25C9.16605 5.99991 8.12302 6.41399 7.3343 7.15755C6.54557 7.9011 6.07076 8.91792 6.007 10H6ZM35.5 10.25V12H10.25C9.78587 12 9.34075 11.8156 9.01256 11.4874C8.68437 11.1592 8.5 10.7141 8.5 10.25C8.5 9.78587 8.68437 9.34075 9.01256 9.01256C9.34075 8.68437 9.78587 8.5 10.25 8.5H33.75C34.717 8.5 35.5 9.284 35.5 10.25ZM32.25 26H36.75C37.0815 26 37.3995 26.1317 37.6339 26.3661C37.8683 26.6005 38 26.9185 38 27.25C38 27.5815 37.8683 27.8995 37.6339 28.1339C37.3995 28.3683 37.0815 28.5 36.75 28.5H32.25C31.9185 28.5 31.6005 28.3683 31.3661 28.1339C31.1317 27.8995 31 27.5815 31 27.25C31 26.9185 31.1317 26.6005 31.3661 26.3661C31.6005 26.1317 31.9185 26 32.25 26Z" fill="black"/>
</svg>
